%TF.GenerationSoftware,KiCad,Pcbnew,9.0.1-1.fc42*%
%TF.CreationDate,2025-05-01T14:21:48-04:00*%
%TF.ProjectId,SN6505_Isolated_PSU,534e3635-3035-45f4-9973-6f6c61746564,rev?*%
%TF.SameCoordinates,Original*%
%TF.FileFunction,Copper,L1,Top*%
%TF.FilePolarity,Positive*%
%FSLAX46Y46*%
G04 Gerber Fmt 4.6, Leading zero omitted, Abs format (unit mm)*
G04 Created by KiCad (PCBNEW 9.0.1-1.fc42) date 2025-05-01 14:21:48*
%MOMM*%
%LPD*%
G01*
G04 APERTURE LIST*
G04 Aperture macros list*
%AMRoundRect*
0 Rectangle with rounded corners*
0 $1 Rounding radius*
0 $2 $3 $4 $5 $6 $7 $8 $9 X,Y pos of 4 corners*
0 Add a 4 corners polygon primitive as box body*
4,1,4,$2,$3,$4,$5,$6,$7,$8,$9,$2,$3,0*
0 Add four circle primitives for the rounded corners*
1,1,$1+$1,$2,$3*
1,1,$1+$1,$4,$5*
1,1,$1+$1,$6,$7*
1,1,$1+$1,$8,$9*
0 Add four rect primitives between the rounded corners*
20,1,$1+$1,$2,$3,$4,$5,0*
20,1,$1+$1,$4,$5,$6,$7,0*
20,1,$1+$1,$6,$7,$8,$9,0*
20,1,$1+$1,$8,$9,$2,$3,0*%
G04 Aperture macros list end*
%TA.AperFunction,ComponentPad*%
%ADD10R,1.700000X1.700000*%
%TD*%
%TA.AperFunction,ComponentPad*%
%ADD11C,1.700000*%
%TD*%
%TA.AperFunction,SMDPad,CuDef*%
%ADD12RoundRect,0.225000X-0.375000X0.225000X-0.375000X-0.225000X0.375000X-0.225000X0.375000X0.225000X0*%
%TD*%
%TA.AperFunction,SMDPad,CuDef*%
%ADD13RoundRect,0.225000X0.375000X-0.225000X0.375000X0.225000X-0.375000X0.225000X-0.375000X-0.225000X0*%
%TD*%
%TA.AperFunction,SMDPad,CuDef*%
%ADD14RoundRect,0.225000X-0.225000X-0.250000X0.225000X-0.250000X0.225000X0.250000X-0.225000X0.250000X0*%
%TD*%
%TA.AperFunction,SMDPad,CuDef*%
%ADD15R,1.585000X1.780000*%
%TD*%
%TA.AperFunction,SMDPad,CuDef*%
%ADD16RoundRect,0.150000X0.512500X0.150000X-0.512500X0.150000X-0.512500X-0.150000X0.512500X-0.150000X0*%
%TD*%
%TA.AperFunction,Conductor*%
%ADD17C,1.000000*%
%TD*%
%TA.AperFunction,Conductor*%
%ADD18C,0.500000*%
%TD*%
G04 APERTURE END LIST*
D10*
%TO.P,J3,1,Pin_1*%
%TO.N,+5V*%
X112500000Y-90000000D03*
%TD*%
%TO.P,J1,1,Pin_1*%
%TO.N,+5V*%
X109960000Y-95000000D03*
D11*
%TO.P,J1,2,Pin_2*%
%TO.N,GND*%
X112500000Y-95000000D03*
%TD*%
D12*
%TO.P,D1,1,K*%
%TO.N,18V_HV*%
X132500000Y-90100000D03*
%TO.P,D1,2,A*%
%TO.N,Net-(D1-A)*%
X132500000Y-93400000D03*
%TD*%
D13*
%TO.P,D2,1,K*%
%TO.N,Net-(D1-A)*%
X130000000Y-93400000D03*
%TO.P,D2,2,A*%
%TO.N,GND1*%
X130000000Y-90100000D03*
%TD*%
D14*
%TO.P,C7,2*%
%TO.N,18V_HV*%
X132025000Y-88500000D03*
%TO.P,C7,1*%
%TO.N,GND1*%
X130475000Y-88500000D03*
%TD*%
D10*
%TO.P,J2,1,Pin_1*%
%TO.N,18V_HV*%
X137500000Y-89960000D03*
D11*
%TO.P,J2,2,Pin_2*%
%TO.N,unconnected-(J2-Pin_2-Pad2)*%
X137500000Y-92500000D03*
%TO.P,J2,3,Pin_3*%
%TO.N,GND1*%
X137500000Y-95040000D03*
%TD*%
D14*
%TO.P,C3,1*%
%TO.N,GND*%
X115475000Y-89750000D03*
%TO.P,C3,2*%
%TO.N,+5V*%
X117025000Y-89750000D03*
%TD*%
D15*
%TO.P,TR1,1*%
%TO.N,Net-(U3-D2)*%
X119907500Y-89960000D03*
%TO.P,TR1,2*%
%TO.N,+5V*%
X119907500Y-92500000D03*
%TO.P,TR1,3*%
%TO.N,Net-(U3-D1)*%
X119907500Y-95040000D03*
%TO.P,TR1,4*%
%TO.N,Net-(C5-Pad1)*%
X127592500Y-95040000D03*
%TO.P,TR1,5*%
%TO.N,unconnected-(TR1-Pad5)*%
X127592500Y-92500000D03*
%TO.P,TR1,6*%
%TO.N,GND1*%
X127592500Y-89960000D03*
%TD*%
D14*
%TO.P,C5,1*%
%TO.N,Net-(C5-Pad1)*%
X129475000Y-95000000D03*
%TO.P,C5,2*%
%TO.N,Net-(D1-A)*%
X131025000Y-95000000D03*
%TD*%
D16*
%TO.P,U3,1,D1*%
%TO.N,Net-(U3-D1)*%
X117637500Y-93450000D03*
%TO.P,U3,2,VCC*%
%TO.N,+5V*%
X117637500Y-92500000D03*
%TO.P,U3,3,D2*%
%TO.N,Net-(U3-D2)*%
X117637500Y-91550000D03*
%TO.P,U3,4,GND*%
%TO.N,GND*%
X115362500Y-91550000D03*
%TO.P,U3,5,EN*%
%TO.N,+5V*%
X115362500Y-92500000D03*
%TO.P,U3,6,CLK*%
X115362500Y-93450000D03*
%TD*%
D17*
%TO.N,GND*%
X112500000Y-95000000D02*
X112500000Y-92750000D01*
X112500000Y-92750000D02*
X115475000Y-89775000D01*
X115475000Y-89775000D02*
X115475000Y-89750000D01*
%TO.N,+5V*%
X109960000Y-95000000D02*
X109960000Y-92540000D01*
X116299001Y-88549001D02*
X117025000Y-89275000D01*
X109960000Y-92540000D02*
X113950999Y-88549001D01*
X117025000Y-89275000D02*
X117025000Y-89750000D01*
X113950999Y-88549001D02*
X116299001Y-88549001D01*
D18*
%TO.N,GND*%
X115362500Y-91550000D02*
X115362500Y-89862500D01*
D17*
%TO.N,GND1*%
X130475000Y-88500000D02*
X130500000Y-88525000D01*
X130500000Y-88525000D02*
X130500000Y-89600000D01*
X130500000Y-89600000D02*
X130000000Y-90100000D01*
X133753071Y-91500000D02*
X131400000Y-91500000D01*
X131400000Y-91500000D02*
X130000000Y-90100000D01*
D18*
%TO.N,GND*%
X115362500Y-89862500D02*
X115475000Y-89750000D01*
%TO.N,+5V*%
X115362500Y-92500000D02*
X115362500Y-93450000D01*
X117887500Y-92500000D02*
X115362500Y-92500000D01*
X117025000Y-89750000D02*
X116500000Y-90275000D01*
X116500000Y-90275000D02*
X116500000Y-92500000D01*
X117637500Y-92500000D02*
X119907500Y-92500000D01*
D17*
%TO.N,GND1*%
X137500000Y-95040000D02*
X133960000Y-91500000D01*
X133960000Y-91500000D02*
X133503071Y-91500000D01*
%TO.N,18V_HV*%
X132100000Y-90000000D02*
X137460000Y-90000000D01*
X137460000Y-90000000D02*
X137500000Y-89960000D01*
D18*
%TO.N,Net-(D1-A)*%
X131025000Y-95000000D02*
X131025000Y-94875000D01*
X131025000Y-94875000D02*
X131000000Y-94850000D01*
D17*
X131000000Y-94850000D02*
X131000000Y-93400000D01*
X132500000Y-93400000D02*
X130000000Y-93400000D01*
D18*
%TO.N,+5V*%
X116750000Y-89725000D02*
X116775000Y-89750000D01*
D17*
%TO.N,Net-(C5-Pad1)*%
X127592500Y-95040000D02*
X129435000Y-95040000D01*
D18*
X129435000Y-95040000D02*
X129475000Y-95000000D01*
%TO.N,Net-(U3-D1)*%
X118317500Y-93450000D02*
X119907500Y-95040000D01*
%TO.N,Net-(U3-D2)*%
X118317500Y-91550000D02*
X119907500Y-89960000D01*
D17*
%TO.N,GND1*%
X127592500Y-89960000D02*
X129860000Y-89960000D01*
D18*
X129860000Y-89960000D02*
X130000000Y-90100000D01*
D17*
%TO.N,18V_HV*%
X132025000Y-88500000D02*
X132025000Y-89625000D01*
X132025000Y-89625000D02*
X132500000Y-90100000D01*
%TD*%
M02*
