%TF.GenerationSoftware,KiCad,Pcbnew,9.0.1-1.fc42*%
%TF.CreationDate,2025-05-01T14:21:49-04:00*%
%TF.ProjectId,SN6505_Isolated_PSU,534e3635-3035-45f4-9973-6f6c61746564,rev?*%
%TF.SameCoordinates,Original*%
%TF.FileFunction,Legend,Top*%
%TF.FilePolarity,Positive*%
%FSLAX46Y46*%
G04 Gerber Fmt 4.6, Leading zero omitted, Abs format (unit mm)*
G04 Created by KiCad (PCBNEW 9.0.1-1.fc42) date 2025-05-01 14:21:49*
%MOMM*%
%LPD*%
G01*
G04 APERTURE LIST*
%ADD10C,0.500000*%
%ADD11C,0.200000*%
%ADD12C,0.150000*%
%ADD13C,0.120000*%
G04 APERTURE END LIST*
D10*
X122500000Y-88000000D02*
X122500000Y-97000000D01*
X125000000Y-88000000D02*
X125000000Y-97000000D01*
D11*
X112738095Y-96249838D02*
X112642857Y-96202219D01*
X112642857Y-96202219D02*
X112500000Y-96202219D01*
X112500000Y-96202219D02*
X112357143Y-96249838D01*
X112357143Y-96249838D02*
X112261905Y-96345076D01*
X112261905Y-96345076D02*
X112214286Y-96440314D01*
X112214286Y-96440314D02*
X112166667Y-96630790D01*
X112166667Y-96630790D02*
X112166667Y-96773647D01*
X112166667Y-96773647D02*
X112214286Y-96964123D01*
X112214286Y-96964123D02*
X112261905Y-97059361D01*
X112261905Y-97059361D02*
X112357143Y-97154600D01*
X112357143Y-97154600D02*
X112500000Y-97202219D01*
X112500000Y-97202219D02*
X112595238Y-97202219D01*
X112595238Y-97202219D02*
X112738095Y-97154600D01*
X112738095Y-97154600D02*
X112785714Y-97106980D01*
X112785714Y-97106980D02*
X112785714Y-96773647D01*
X112785714Y-96773647D02*
X112595238Y-96773647D01*
X113214286Y-97202219D02*
X113214286Y-96202219D01*
X113214286Y-96202219D02*
X113785714Y-97202219D01*
X113785714Y-97202219D02*
X113785714Y-96202219D01*
X114261905Y-97202219D02*
X114261905Y-96202219D01*
X114261905Y-96202219D02*
X114500000Y-96202219D01*
X114500000Y-96202219D02*
X114642857Y-96249838D01*
X114642857Y-96249838D02*
X114738095Y-96345076D01*
X114738095Y-96345076D02*
X114785714Y-96440314D01*
X114785714Y-96440314D02*
X114833333Y-96630790D01*
X114833333Y-96630790D02*
X114833333Y-96773647D01*
X114833333Y-96773647D02*
X114785714Y-96964123D01*
X114785714Y-96964123D02*
X114738095Y-97059361D01*
X114738095Y-97059361D02*
X114642857Y-97154600D01*
X114642857Y-97154600D02*
X114500000Y-97202219D01*
X114500000Y-97202219D02*
X114261905Y-97202219D01*
X109559523Y-96202219D02*
X109083333Y-96202219D01*
X109083333Y-96202219D02*
X109035714Y-96678409D01*
X109035714Y-96678409D02*
X109083333Y-96630790D01*
X109083333Y-96630790D02*
X109178571Y-96583171D01*
X109178571Y-96583171D02*
X109416666Y-96583171D01*
X109416666Y-96583171D02*
X109511904Y-96630790D01*
X109511904Y-96630790D02*
X109559523Y-96678409D01*
X109559523Y-96678409D02*
X109607142Y-96773647D01*
X109607142Y-96773647D02*
X109607142Y-97011742D01*
X109607142Y-97011742D02*
X109559523Y-97106980D01*
X109559523Y-97106980D02*
X109511904Y-97154600D01*
X109511904Y-97154600D02*
X109416666Y-97202219D01*
X109416666Y-97202219D02*
X109178571Y-97202219D01*
X109178571Y-97202219D02*
X109083333Y-97154600D01*
X109083333Y-97154600D02*
X109035714Y-97106980D01*
X109892857Y-96202219D02*
X110226190Y-97202219D01*
X110226190Y-97202219D02*
X110559523Y-96202219D01*
X112809523Y-87952219D02*
X112333333Y-87952219D01*
X112333333Y-87952219D02*
X112285714Y-88428409D01*
X112285714Y-88428409D02*
X112333333Y-88380790D01*
X112333333Y-88380790D02*
X112428571Y-88333171D01*
X112428571Y-88333171D02*
X112666666Y-88333171D01*
X112666666Y-88333171D02*
X112761904Y-88380790D01*
X112761904Y-88380790D02*
X112809523Y-88428409D01*
X112809523Y-88428409D02*
X112857142Y-88523647D01*
X112857142Y-88523647D02*
X112857142Y-88761742D01*
X112857142Y-88761742D02*
X112809523Y-88856980D01*
X112809523Y-88856980D02*
X112761904Y-88904600D01*
X112761904Y-88904600D02*
X112666666Y-88952219D01*
X112666666Y-88952219D02*
X112428571Y-88952219D01*
X112428571Y-88952219D02*
X112333333Y-88904600D01*
X112333333Y-88904600D02*
X112285714Y-88856980D01*
X113142857Y-87952219D02*
X113476190Y-88952219D01*
X113476190Y-88952219D02*
X113809523Y-87952219D01*
X136630952Y-88952219D02*
X136059524Y-88952219D01*
X136345238Y-88952219D02*
X136345238Y-87952219D01*
X136345238Y-87952219D02*
X136250000Y-88095076D01*
X136250000Y-88095076D02*
X136154762Y-88190314D01*
X136154762Y-88190314D02*
X136059524Y-88237933D01*
X137202381Y-88380790D02*
X137107143Y-88333171D01*
X137107143Y-88333171D02*
X137059524Y-88285552D01*
X137059524Y-88285552D02*
X137011905Y-88190314D01*
X137011905Y-88190314D02*
X137011905Y-88142695D01*
X137011905Y-88142695D02*
X137059524Y-88047457D01*
X137059524Y-88047457D02*
X137107143Y-87999838D01*
X137107143Y-87999838D02*
X137202381Y-87952219D01*
X137202381Y-87952219D02*
X137392857Y-87952219D01*
X137392857Y-87952219D02*
X137488095Y-87999838D01*
X137488095Y-87999838D02*
X137535714Y-88047457D01*
X137535714Y-88047457D02*
X137583333Y-88142695D01*
X137583333Y-88142695D02*
X137583333Y-88190314D01*
X137583333Y-88190314D02*
X137535714Y-88285552D01*
X137535714Y-88285552D02*
X137488095Y-88333171D01*
X137488095Y-88333171D02*
X137392857Y-88380790D01*
X137392857Y-88380790D02*
X137202381Y-88380790D01*
X137202381Y-88380790D02*
X137107143Y-88428409D01*
X137107143Y-88428409D02*
X137059524Y-88476028D01*
X137059524Y-88476028D02*
X137011905Y-88571266D01*
X137011905Y-88571266D02*
X137011905Y-88761742D01*
X137011905Y-88761742D02*
X137059524Y-88856980D01*
X137059524Y-88856980D02*
X137107143Y-88904600D01*
X137107143Y-88904600D02*
X137202381Y-88952219D01*
X137202381Y-88952219D02*
X137392857Y-88952219D01*
X137392857Y-88952219D02*
X137488095Y-88904600D01*
X137488095Y-88904600D02*
X137535714Y-88856980D01*
X137535714Y-88856980D02*
X137583333Y-88761742D01*
X137583333Y-88761742D02*
X137583333Y-88571266D01*
X137583333Y-88571266D02*
X137535714Y-88476028D01*
X137535714Y-88476028D02*
X137488095Y-88428409D01*
X137488095Y-88428409D02*
X137392857Y-88380790D01*
X137869048Y-87952219D02*
X138202381Y-88952219D01*
X138202381Y-88952219D02*
X138535714Y-87952219D01*
X136654761Y-97202219D02*
X136321428Y-96726028D01*
X136083333Y-97202219D02*
X136083333Y-96202219D01*
X136083333Y-96202219D02*
X136464285Y-96202219D01*
X136464285Y-96202219D02*
X136559523Y-96249838D01*
X136559523Y-96249838D02*
X136607142Y-96297457D01*
X136607142Y-96297457D02*
X136654761Y-96392695D01*
X136654761Y-96392695D02*
X136654761Y-96535552D01*
X136654761Y-96535552D02*
X136607142Y-96630790D01*
X136607142Y-96630790D02*
X136559523Y-96678409D01*
X136559523Y-96678409D02*
X136464285Y-96726028D01*
X136464285Y-96726028D02*
X136083333Y-96726028D01*
X136940476Y-96202219D02*
X137511904Y-96202219D01*
X137226190Y-97202219D02*
X137226190Y-96202219D01*
X137845238Y-97202219D02*
X137845238Y-96202219D01*
X137845238Y-96202219D02*
X138416666Y-97202219D01*
X138416666Y-97202219D02*
X138416666Y-96202219D01*
D12*
X132954819Y-92488094D02*
X131954819Y-92488094D01*
X131954819Y-92488094D02*
X131954819Y-92249999D01*
X131954819Y-92249999D02*
X132002438Y-92107142D01*
X132002438Y-92107142D02*
X132097676Y-92011904D01*
X132097676Y-92011904D02*
X132192914Y-91964285D01*
X132192914Y-91964285D02*
X132383390Y-91916666D01*
X132383390Y-91916666D02*
X132526247Y-91916666D01*
X132526247Y-91916666D02*
X132716723Y-91964285D01*
X132716723Y-91964285D02*
X132811961Y-92011904D01*
X132811961Y-92011904D02*
X132907200Y-92107142D01*
X132907200Y-92107142D02*
X132954819Y-92249999D01*
X132954819Y-92249999D02*
X132954819Y-92488094D01*
X132954819Y-90964285D02*
X132954819Y-91535713D01*
X132954819Y-91249999D02*
X131954819Y-91249999D01*
X131954819Y-91249999D02*
X132097676Y-91345237D01*
X132097676Y-91345237D02*
X132192914Y-91440475D01*
X132192914Y-91440475D02*
X132240533Y-91535713D01*
X130454819Y-92488094D02*
X129454819Y-92488094D01*
X129454819Y-92488094D02*
X129454819Y-92249999D01*
X129454819Y-92249999D02*
X129502438Y-92107142D01*
X129502438Y-92107142D02*
X129597676Y-92011904D01*
X129597676Y-92011904D02*
X129692914Y-91964285D01*
X129692914Y-91964285D02*
X129883390Y-91916666D01*
X129883390Y-91916666D02*
X130026247Y-91916666D01*
X130026247Y-91916666D02*
X130216723Y-91964285D01*
X130216723Y-91964285D02*
X130311961Y-92011904D01*
X130311961Y-92011904D02*
X130407200Y-92107142D01*
X130407200Y-92107142D02*
X130454819Y-92249999D01*
X130454819Y-92249999D02*
X130454819Y-92488094D01*
X129550057Y-91535713D02*
X129502438Y-91488094D01*
X129502438Y-91488094D02*
X129454819Y-91392856D01*
X129454819Y-91392856D02*
X129454819Y-91154761D01*
X129454819Y-91154761D02*
X129502438Y-91059523D01*
X129502438Y-91059523D02*
X129550057Y-91011904D01*
X129550057Y-91011904D02*
X129645295Y-90964285D01*
X129645295Y-90964285D02*
X129740533Y-90964285D01*
X129740533Y-90964285D02*
X129883390Y-91011904D01*
X129883390Y-91011904D02*
X130454819Y-91583332D01*
X130454819Y-91583332D02*
X130454819Y-90964285D01*
X123204819Y-93761904D02*
X123204819Y-93190476D01*
X124204819Y-93476190D02*
X123204819Y-93476190D01*
X124204819Y-92285714D02*
X123728628Y-92619047D01*
X124204819Y-92857142D02*
X123204819Y-92857142D01*
X123204819Y-92857142D02*
X123204819Y-92476190D01*
X123204819Y-92476190D02*
X123252438Y-92380952D01*
X123252438Y-92380952D02*
X123300057Y-92333333D01*
X123300057Y-92333333D02*
X123395295Y-92285714D01*
X123395295Y-92285714D02*
X123538152Y-92285714D01*
X123538152Y-92285714D02*
X123633390Y-92333333D01*
X123633390Y-92333333D02*
X123681009Y-92380952D01*
X123681009Y-92380952D02*
X123728628Y-92476190D01*
X123728628Y-92476190D02*
X123728628Y-92857142D01*
X124204819Y-91333333D02*
X124204819Y-91904761D01*
X124204819Y-91619047D02*
X123204819Y-91619047D01*
X123204819Y-91619047D02*
X123347676Y-91714285D01*
X123347676Y-91714285D02*
X123442914Y-91809523D01*
X123442914Y-91809523D02*
X123490533Y-91904761D01*
D13*
%TO.C,D1*%
X131500000Y-89390000D02*
X131500000Y-93400000D01*
X133500000Y-89390000D02*
X131500000Y-89390000D01*
X133500000Y-89390000D02*
X133500000Y-93400000D01*
%TO.C,D2*%
X129000000Y-94110000D02*
X129000000Y-90100000D01*
X129000000Y-94110000D02*
X131000000Y-94110000D01*
X131000000Y-94110000D02*
X131000000Y-90100000D01*
%TO.C,C7*%
X131109420Y-89010000D02*
X131390580Y-89010000D01*
X131109420Y-87990000D02*
X131390580Y-87990000D01*
%TO.C,C3*%
X116109420Y-89240000D02*
X116390580Y-89240000D01*
X116109420Y-90260000D02*
X116390580Y-90260000D01*
%TO.C,TR1*%
X119320000Y-93570000D02*
X119320000Y-93950000D01*
X120880000Y-89025000D02*
X126620000Y-89025000D01*
X120880000Y-95975000D02*
X126620000Y-95975000D01*
X128180000Y-91050000D02*
X128180000Y-91430000D01*
X128180000Y-93950000D02*
X128180000Y-93570000D01*
X118850000Y-90000000D02*
X118520000Y-90240000D01*
X118520000Y-89760000D01*
X118850000Y-90000000D01*
G36*
X118850000Y-90000000D02*
G01*
X118520000Y-90240000D01*
X118520000Y-89760000D01*
X118850000Y-90000000D01*
G37*
%TO.C,C5*%
X130109420Y-94490000D02*
X130390580Y-94490000D01*
X130109420Y-95510000D02*
X130390580Y-95510000D01*
%TO.C,U3*%
X116500000Y-90940000D02*
X115700000Y-90940000D01*
X116500000Y-90940000D02*
X117300000Y-90940000D01*
X116500000Y-94060000D02*
X115700000Y-94060000D01*
X116500000Y-94060000D02*
X117300000Y-94060000D01*
X118040000Y-94340000D02*
X117560000Y-94340000D01*
X117800000Y-94010000D01*
X118040000Y-94340000D01*
G36*
X118040000Y-94340000D02*
G01*
X117560000Y-94340000D01*
X117800000Y-94010000D01*
X118040000Y-94340000D01*
G37*
%TD*%
M02*
